<svg width="357" height="40" viewBox="0 0 357 40" fill="none" xmlns="http://www.w3.org/2000/svg">
<g clip-path="url(#clip0_4471_16291)">
<path d="M0 0.0529603V2.45388H8.21069V32.1631H11.0654V2.45388H19.2732V0.0529603H0Z" fill="#002663"/>
<path d="M20.9707 0.0529603H23.6485V11.8056H23.738C24.4073 9.39559 26.721 7.97339 29.5358 7.97339C33.152 7.97339 35.6042 9.8478 35.6042 14.2956V32.1631H32.9285V15.0538C32.9285 11.8056 31.5913 10.1976 28.8682 10.1976C25.7441 10.1976 23.6485 12.6076 23.6485 16.26V32.1631H20.9707V0.0529603" fill="#002663"/>
<path d="M53.8257 24.3186C53.4243 29.349 50.6606 32.7061 46.1995 32.7061C41.2007 32.7061 38.2588 29.2186 38.2588 20.3036C38.2588 12.1149 41.2007 7.96927 46.419 7.96927C51.6843 7.96927 54.0501 11.5813 54.0501 19.4612V20.4476H41.112V21.5556C41.112 28.3746 43.5206 30.471 46.1498 30.471C48.9627 30.471 50.7072 28.4662 51.1507 24.3186H53.8257ZM51.1977 18.2179C51.105 12.332 49.4573 10.1968 46.1498 10.1968C42.8507 10.1968 41.2007 12.332 41.112 18.2179H51.1977Z" fill="#002663"/>
<path d="M76.5138 17.1473C76.5138 13.6302 75.7025 12.1559 73.786 12.1559C71.3803 12.1559 71.0631 15.1911 71.0631 20.1357C71.0631 25.574 71.3803 28.0656 73.786 28.0656C75.9305 28.0656 76.4247 26.5971 76.5138 22.3563H83.201C83.1558 29.8014 80.2143 32.793 73.657 32.793C64.5537 32.793 63.8374 26.4122 63.8374 19.2447C63.8374 12.4718 65.8032 7.43251 73.657 7.43251C81.2429 7.43251 83.201 11.3959 83.201 17.1473H76.5138" fill="#002663"/>
<path d="M84.7876 20.1811C84.7876 12.9628 86.3874 7.43251 94.7331 7.43251C103.569 7.43251 104.681 12.8283 104.681 20.0473C104.681 27.261 103.076 32.793 94.7331 32.793C85.9004 32.793 84.7876 27.3907 84.7876 20.1811V20.1811ZM94.7779 12.1559C92.6391 12.1559 92.0106 14.2507 92.0106 20.0887C92.0106 25.9732 92.6391 28.0656 94.7779 28.0656C97.008 28.0656 97.456 26.0672 97.456 20.1357C97.456 14.1616 97.008 12.1559 94.7779 12.1559Z" fill="#002663"/>
<path d="M114.206 20.1811C114.206 12.9628 115.811 7.43251 124.154 7.43251C132.989 7.43251 134.105 12.8283 134.105 20.0473C134.105 27.261 132.499 32.793 124.154 32.793C115.32 32.793 114.206 27.3907 114.206 20.1811ZM124.198 12.1559C122.058 12.1559 121.432 14.2507 121.432 20.0887C121.432 25.9732 122.058 28.0656 124.198 28.0656C126.431 28.0656 126.874 26.0672 126.874 20.1357C126.874 14.1616 126.431 12.1559 124.198 12.1559Z" fill="#002663"/>
<path d="M135.546 8.05973H142.502V11.0043H142.591C143.131 9.34532 144.602 7.43279 147.814 7.43279C152.68 7.43279 155.269 10.9169 155.269 19.9132C155.269 27.391 154.202 32.7899 148.265 32.7899C146.253 32.7899 144.069 32.1175 142.868 29.5394H142.773V40H135.546V8.05973ZM145.275 27.5378C147.902 27.5378 148.038 24.6402 148.038 20.2655C148.038 16.3918 147.95 12.6966 145.228 12.6966C143.086 12.6966 142.637 15.2731 142.637 19.9586C142.637 24.2261 142.823 27.5378 145.275 27.5378" fill="#002663"/>
<path d="M163.838 21.2875V22.7602C163.838 26.5084 164.373 28.3275 166.472 28.3275C168.342 28.3275 168.923 26.9531 169.102 23.9184H175.795C175.666 29.8958 172.402 32.79 166.423 32.79C157.326 32.79 156.608 26.4126 156.608 19.2451C156.608 12.4731 158.572 7.42802 166.423 7.42802C175.399 7.42802 176.017 13.0994 176.017 21.2875H163.838ZM169.056 17.1049C169.056 13.7181 168.611 11.8965 166.609 11.8965C164.234 11.8965 163.838 13.8543 163.838 17.1049H169.056" fill="#002663"/>
<path d="M177.458 8.05986H184.42V11.4451H184.509C185.449 9.30487 187.278 7.42871 190.313 7.42871C190.664 7.42871 191.017 7.42871 191.471 7.51957V14.2932C190.757 14.162 190.177 14.1158 189.459 14.1158C186.56 14.1158 184.691 15.3219 184.691 18.4876V32.1631H177.458V8.05986" fill="#002663"/>
<path d="M214.778 13.0506H211.793V8.05991H214.778V0.0314897H222.003V8.05991H225.349V13.0506H222.003V25.2088C222.003 26.9083 222.634 27.4397 224.32 27.4397C224.637 27.4397 225.036 27.3903 225.349 27.3448V32.1631C223.96 32.338 222.588 32.4336 221.209 32.4336C216.206 32.4336 214.778 31.5393 214.778 25.9324V13.0506" fill="#002663"/>
<path d="M227.308 5.51377H234.538V-0.000676414H227.308V5.51377ZM227.308 32.1631H234.538V8.05744H227.308V32.1631" fill="#002663"/>
<path d="M236.051 8.05986H243.541L246.353 25.8375H246.433L249.301 8.05986H256.526L250.542 32.1631H241.986L236.051 8.05986" fill="#002663"/>
<path d="M263.252 21.2875V22.7602C263.252 26.5084 263.779 28.3275 265.875 28.3275C267.752 28.3275 268.326 26.9531 268.506 23.9184H275.205C275.068 29.8958 271.814 32.79 265.829 32.79C256.713 32.79 256.021 26.4126 256.021 19.2451C256.021 12.4731 257.978 7.42802 265.829 7.42802C274.796 7.42802 275.434 13.0994 275.434 21.2875H263.252ZM268.459 17.1049C268.459 13.7181 268.026 11.8965 266.015 11.8965C263.649 11.8965 263.252 13.8543 263.252 17.1049H268.459" fill="#002663"/>
<path d="M105.741 22.9785H112.968V17.0963H105.741V22.9785Z" fill="#002663"/>
<path d="M210.484 26.9476V14.5633C210.484 9.48116 207.852 7.43251 201.92 7.43251C198.926 7.43251 196.874 7.84419 195.183 8.9959C193.705 10.0041 192.765 11.6675 192.518 14.2597H198.994C199.235 12.9165 199.923 12.1567 201.518 12.1567C203.123 12.1567 203.792 13.099 203.792 14.5633C203.792 16.3916 203.391 16.7522 201.208 17.3264C199.196 17.8643 196.523 18.3056 194.736 19.2858C192.948 20.2652 191.788 22.6292 191.788 25.4336C191.788 30.6496 194.16 32.793 198.219 32.793C200.627 32.793 202.9 31.5397 203.879 29.4012H203.968C204.013 30.3335 204.108 31.3129 204.371 32.1635H211.333C210.484 31.0952 210.484 28.7783 210.484 26.9476V26.9476ZM203.747 24.4939C203.747 26.9072 202.36 27.7999 200.845 27.7999C199.51 27.7999 198.751 26.644 198.751 24.7242C198.751 23.3818 199.111 22.6292 199.862 22.0477C200.535 21.509 201.518 21.4678 203.792 20.2652C203.792 21.2449 203.747 22.4915 203.747 24.4939" fill="#002663"/>
<path d="M285.172 0.0633934H287.873V11.8854H287.963C288.549 9.36827 290.575 7.74951 293.546 7.74951C298.812 7.74951 301.198 11.9742 301.198 20.2006C301.198 28.472 298.812 32.6982 293.546 32.6982C290.71 32.6982 288.414 30.9447 287.694 28.2022H287.603V32.158H285.172V0.0633934ZM293.096 30.4511C295.796 30.4511 298.317 29.056 298.317 20.2006C298.317 11.3911 295.796 9.99664 293.096 9.99664C290.349 9.99664 287.873 11.3911 287.873 20.2006C287.873 29.056 290.349 30.4511 293.096 30.4511" fill="#0099CC"/>
<path d="M303.585 15.3912C303.585 10.4927 305.926 7.74951 310.967 7.74951C315.919 7.74951 317.721 10.3134 317.721 14.0875V28.2022C317.721 29.5512 318.17 30.1804 319.116 30.1804H319.881V32.158C319.387 32.338 318.981 32.4285 318.621 32.4285C316.505 32.4285 315.154 31.9325 315.154 29.4607V28.6513H315.064C313.983 31.7983 311.553 32.6982 308.896 32.6982C304.709 32.6982 302.819 30.0899 302.819 25.9549C302.819 22.8085 304.26 20.2912 307.636 19.347L312.723 17.909C314.613 17.3687 315.019 16.9195 315.019 14.1334C315.019 11.0769 313.309 9.99754 310.877 9.99754C307.681 9.99754 306.285 11.9307 306.285 15.3912H303.585ZM315.019 18.6732H314.929C314.659 19.4818 313.127 19.9762 312.048 20.246L309.796 20.8303C307.095 21.5502 305.7 22.9434 305.7 25.774C305.7 28.5623 307.14 30.4511 309.481 30.4511C312.768 30.4511 315.019 27.9777 315.019 23.7076V18.6732Z" fill="#0099CC"/>
<path d="M321.907 8.28933H324.338V11.6159H324.428C325.779 8.96297 328.119 7.74976 330.55 7.74976C334.197 7.74976 336.673 9.63835 336.673 14.1337V32.1582H333.972V14.8971C333.972 11.6159 332.62 9.99778 329.875 9.99778C326.724 9.99778 324.608 12.4252 324.608 16.1112V32.1582H321.907V8.28933" fill="#0099CC"/>
<path d="M340.274 0.0636376V32.1582H342.974V23.7967L346.531 19.5717L353.644 32.1582H356.975L348.467 17.1442L355.669 8.28933H352.339L343.065 20.1573H342.974V0.0636376H340.274Z" fill="#0099CC"/>
</g>
<defs>
<clipPath id="clip0_4471_16291">
<rect width="356.975" height="40" fill="white"/>
</clipPath>
</defs>
</svg>

